<svg width="207" height="38" viewBox="0 0 207 38" fill="none" xmlns="http://www.w3.org/2000/svg">
<path d="M34.287 1.032C34.9697 0.434664 35.8657 0.135998 36.975 0.135998C38.0843 0.0933317 38.9163 0.349332 39.471 0.903999C40.0257 1.45866 40.5163 2.73866 40.943 4.744C41.2843 6.19467 41.455 7.28267 41.455 8.008C41.455 8.73333 41.2417 10.1627 40.815 12.296C39.9617 16.4347 38.6817 20.4667 36.975 24.392C35.311 28.3173 33.4977 31.496 31.535 33.928C29.5723 36.36 27.8017 37.576 26.223 37.576C25.0283 37.576 23.983 37.0427 23.087 35.976C22.2337 34.8667 21.3803 33.0107 20.527 30.408C19.5883 27.6347 18.9697 26.248 18.671 26.248C18.3297 26.248 17.0497 28.3387 14.831 32.52C13.9777 34.2267 13.3377 35.2507 12.911 35.592C12.399 35.8907 11.567 35.9973 10.415 35.912C9.263 35.784 8.40967 35.5067 7.855 35.08C6.959 34.3973 5.82834 32.6267 4.463 29.768C3.14034 26.8667 2.13767 24.0507 1.455 21.32C1.071 19.8693 0.85767 17.736 0.815003 14.92C0.772336 12.0613 0.900336 10.056 1.199 8.904C1.66834 7.32533 2.58567 6.25867 3.951 5.704C5.359 5.10667 6.575 5.29867 7.599 6.28C8.02567 6.74933 8.34567 7.60266 8.559 8.84C8.815 10.0347 9.15634 12.5947 9.583 16.52C9.79634 18.6107 10.159 20.2107 10.671 21.32C11.0123 22.0027 11.247 22.408 11.375 22.536C11.5457 22.6213 11.759 22.4933 12.015 22.152C12.399 21.5973 12.591 21.192 12.591 20.936C12.591 20.4667 13.3803 18.6747 14.959 15.56C16.5803 12.4453 17.6043 10.6747 18.031 10.248C18.5003 9.77866 19.1617 9.50133 20.015 9.416C20.8683 9.33066 21.615 9.45867 22.255 9.8C23.407 10.3973 23.983 12.2107 23.983 15.24C23.983 16.4773 24.239 18.184 24.751 20.36C25.263 22.536 25.7537 23.9653 26.223 24.648C26.5217 25.032 26.8203 25.032 27.119 24.648C27.3323 24.3493 27.7377 23.5813 28.335 22.344C29.231 20.5093 30.063 18.312 30.831 15.752C31.599 13.192 31.983 11.2933 31.983 10.056C31.983 8.392 32.2177 6.62133 32.687 4.744C33.199 2.824 33.7323 1.58666 34.287 1.032ZM54.4005 14.408C57.3018 13.6827 60.0965 14.024 62.7845 15.432C64.1925 16.1573 65.0458 16.8613 65.3445 17.544C65.6432 18.2267 65.7285 19.6987 65.6005 21.96C65.4725 23.8373 65.4512 25.1387 65.5365 25.864C65.6645 26.5467 65.9845 27.528 66.4965 28.808C67.2218 30.6853 67.5845 32.008 67.5845 32.776C67.5845 33.7147 67.2645 34.4827 66.6245 35.08C66.0272 35.6347 65.2378 35.912 64.2565 35.912C62.3792 35.912 61.0992 35.0587 60.4165 33.352C60.0325 32.5413 59.6272 32.1573 59.2005 32.2C58.8165 32.2427 58.3045 32.7547 57.6645 33.736C56.8538 34.9307 55.9578 35.7627 54.9765 36.232C53.9952 36.7013 52.6298 36.936 50.8805 36.936C48.4912 36.936 46.8058 36.4667 45.8245 35.528C44.8432 34.5893 44.2672 32.904 44.0965 30.472C43.7978 26.5893 44.9285 22.8773 47.4885 19.336C48.5978 17.7147 49.5792 16.6053 50.4325 16.008C51.3285 15.368 52.6512 14.8347 54.4005 14.408ZM56.6405 20.744C56.6405 19.9333 56.0432 20.0613 54.8485 21.128C53.6965 22.152 52.7792 23.368 52.0965 24.776C51.7978 25.3733 51.5205 26.0347 51.2645 26.76C51.0512 27.4853 50.9232 28.0613 50.8805 28.488C50.8805 28.872 50.9445 29.1067 51.0725 29.192C51.5845 29.192 52.6298 27.976 54.2085 25.544C55.8298 23.0693 56.6405 21.4693 56.6405 20.744ZM103.597 1.032C104.28 0.434664 105.176 0.135998 106.285 0.135998C107.394 0.0933317 108.226 0.349332 108.781 0.903999C109.336 1.45866 109.826 2.73866 110.253 4.744C110.594 6.19467 110.765 7.28267 110.765 8.008C110.765 8.73333 110.552 10.1627 110.125 12.296C109.272 16.4347 107.992 20.4667 106.285 24.392C104.621 28.3173 102.808 31.496 100.845 33.928C98.8823 36.36 97.1117 37.576 95.533 37.576C94.3383 37.576 93.293 37.0427 92.397 35.976C91.5437 34.8667 90.6903 33.0107 89.837 30.408C88.8983 27.6347 88.2797 26.248 87.981 26.248C87.6397 26.248 86.3597 28.3387 84.141 32.52C83.2877 34.2267 82.6477 35.2507 82.221 35.592C81.709 35.8907 80.877 35.9973 79.725 35.912C78.573 35.784 77.7197 35.5067 77.165 35.08C76.269 34.3973 75.1383 32.6267 73.773 29.768C72.4503 26.8667 71.4477 24.0507 70.765 21.32C70.381 19.8693 70.1677 17.736 70.125 14.92C70.0823 12.0613 70.2103 10.056 70.509 8.904C70.9783 7.32533 71.8957 6.25867 73.261 5.704C74.669 5.10667 75.885 5.29867 76.909 6.28C77.3357 6.74933 77.6557 7.60266 77.869 8.84C78.125 10.0347 78.4663 12.5947 78.893 16.52C79.1063 18.6107 79.469 20.2107 79.981 21.32C80.3223 22.0027 80.557 22.408 80.685 22.536C80.8557 22.6213 81.069 22.4933 81.325 22.152C81.709 21.5973 81.901 21.192 81.901 20.936C81.901 20.4667 82.6903 18.6747 84.269 15.56C85.8903 12.4453 86.9143 10.6747 87.341 10.248C87.8103 9.77866 88.4717 9.50133 89.325 9.416C90.1783 9.33066 90.925 9.45867 91.565 9.8C92.717 10.3973 93.293 12.2107 93.293 15.24C93.293 16.4773 93.549 18.184 94.061 20.36C94.573 22.536 95.0637 23.9653 95.533 24.648C95.8317 25.032 96.1303 25.032 96.429 24.648C96.6423 24.3493 97.0477 23.5813 97.645 22.344C98.541 20.5093 99.373 18.312 100.141 15.752C100.909 13.192 101.293 11.2933 101.293 10.056C101.293 8.392 101.528 6.62133 101.997 4.744C102.509 2.824 103.042 1.58666 103.597 1.032ZM123.71 14.408C126.612 13.6827 129.406 14.024 132.094 15.432C133.503 16.1573 134.356 16.8613 134.655 17.544C134.953 18.2267 135.039 19.6987 134.91 21.96C134.782 23.8373 134.761 25.1387 134.847 25.864C134.975 26.5467 135.295 27.528 135.807 28.808C136.532 30.6853 136.895 32.008 136.895 32.776C136.895 33.7147 136.575 34.4827 135.934 35.08C135.337 35.6347 134.548 35.912 133.566 35.912C131.689 35.912 130.409 35.0587 129.726 33.352C129.342 32.5413 128.937 32.1573 128.51 32.2C128.126 32.2427 127.614 32.7547 126.974 33.736C126.164 34.9307 125.268 35.7627 124.286 36.232C123.305 36.7013 121.94 36.936 120.19 36.936C117.801 36.936 116.116 36.4667 115.134 35.528C114.153 34.5893 113.577 32.904 113.406 30.472C113.108 26.5893 114.238 22.8773 116.798 19.336C117.908 17.7147 118.889 16.6053 119.742 16.008C120.639 15.368 121.961 14.8347 123.71 14.408ZM125.951 20.744C125.951 19.9333 125.353 20.0613 124.158 21.128C123.006 22.152 122.089 23.368 121.406 24.776C121.108 25.3733 120.83 26.0347 120.574 26.76C120.361 27.4853 120.233 28.0613 120.19 28.488C120.19 28.872 120.254 29.1067 120.382 29.192C120.894 29.192 121.94 27.976 123.519 25.544C125.14 23.0693 125.951 21.4693 125.951 20.744ZM172.907 1.032C173.59 0.434664 174.486 0.135998 175.595 0.135998C176.704 0.0933317 177.536 0.349332 178.091 0.903999C178.646 1.45866 179.136 2.73866 179.563 4.744C179.904 6.19467 180.075 7.28267 180.075 8.008C180.075 8.73333 179.862 10.1627 179.435 12.296C178.582 16.4347 177.302 20.4667 175.595 24.392C173.931 28.3173 172.118 31.496 170.155 33.928C168.192 36.36 166.422 37.576 164.843 37.576C163.648 37.576 162.603 37.0427 161.707 35.976C160.854 34.8667 160 33.0107 159.147 30.408C158.208 27.6347 157.59 26.248 157.291 26.248C156.95 26.248 155.67 28.3387 153.451 32.52C152.598 34.2267 151.958 35.2507 151.531 35.592C151.019 35.8907 150.187 35.9973 149.035 35.912C147.883 35.784 147.03 35.5067 146.475 35.08C145.579 34.3973 144.448 32.6267 143.083 29.768C141.76 26.8667 140.758 24.0507 140.075 21.32C139.691 19.8693 139.478 17.736 139.435 14.92C139.392 12.0613 139.52 10.056 139.819 8.904C140.288 7.32533 141.206 6.25867 142.571 5.704C143.979 5.10667 145.195 5.29867 146.219 6.28C146.646 6.74933 146.966 7.60266 147.179 8.84C147.435 10.0347 147.776 12.5947 148.203 16.52C148.416 18.6107 148.779 20.2107 149.291 21.32C149.632 22.0027 149.867 22.408 149.995 22.536C150.166 22.6213 150.379 22.4933 150.635 22.152C151.019 21.5973 151.211 21.192 151.211 20.936C151.211 20.4667 152 18.6747 153.579 15.56C155.2 12.4453 156.224 10.6747 156.651 10.248C157.12 9.77866 157.782 9.50133 158.635 9.416C159.488 9.33066 160.235 9.45867 160.875 9.8C162.027 10.3973 162.603 12.2107 162.603 15.24C162.603 16.4773 162.859 18.184 163.371 20.36C163.883 22.536 164.374 23.9653 164.843 24.648C165.142 25.032 165.44 25.032 165.739 24.648C165.952 24.3493 166.358 23.5813 166.955 22.344C167.851 20.5093 168.683 18.312 169.451 15.752C170.219 13.192 170.603 11.2933 170.603 10.056C170.603 8.392 170.838 6.62133 171.307 4.744C171.819 2.824 172.352 1.58666 172.907 1.032ZM193.02 14.408C195.922 13.6827 198.716 14.024 201.404 15.432C202.812 16.1573 203.666 16.8613 203.964 17.544C204.263 18.2267 204.348 19.6987 204.22 21.96C204.092 23.8373 204.071 25.1387 204.156 25.864C204.284 26.5467 204.604 27.528 205.116 28.808C205.842 30.6853 206.204 32.008 206.204 32.776C206.204 33.7147 205.884 34.4827 205.244 35.08C204.647 35.6347 203.858 35.912 202.876 35.912C200.999 35.912 199.719 35.0587 199.036 33.352C198.652 32.5413 198.247 32.1573 197.82 32.2C197.436 32.2427 196.924 32.7547 196.284 33.736C195.474 34.9307 194.578 35.7627 193.596 36.232C192.615 36.7013 191.25 36.936 189.5 36.936C187.111 36.936 185.426 36.4667 184.444 35.528C183.463 34.5893 182.887 32.904 182.716 30.472C182.418 26.5893 183.548 22.8773 186.108 19.336C187.218 17.7147 188.199 16.6053 189.052 16.008C189.948 15.368 191.271 14.8347 193.02 14.408ZM195.26 20.744C195.26 19.9333 194.663 20.0613 193.468 21.128C192.316 22.152 191.399 23.368 190.716 24.776C190.418 25.3733 190.14 26.0347 189.884 26.76C189.671 27.4853 189.543 28.0613 189.5 28.488C189.5 28.872 189.564 29.1067 189.692 29.192C190.204 29.192 191.25 27.976 192.828 25.544C194.45 23.0693 195.26 21.4693 195.26 20.744Z" fill="white"/>
</svg>
